<svg id="visual" viewBox="0 0 960 540" width="960" height="540" xmlns="http://www.w3.org/2000/svg" xmlns:xlink="http://www.w3.org/1999/xlink" version="1.1"><rect x="0" y="0" width="960" height="540" fill="#02101a"></rect><defs><linearGradient id="grad1_0" x1="43.8%" y1="0%" x2="100%" y2="100%"><stop offset="14.444444444444446%" stop-color="#23aa14" stop-opacity="1"></stop><stop offset="85.55555555555554%" stop-color="#23aa14" stop-opacity="1"></stop></linearGradient></defs><defs><linearGradient id="grad1_1" x1="43.8%" y1="0%" x2="100%" y2="100%"><stop offset="14.444444444444446%" stop-color="#23aa14" stop-opacity="1"></stop><stop offset="85.55555555555554%" stop-color="#00785c" stop-opacity="1"></stop></linearGradient></defs><defs><linearGradient id="grad1_2" x1="43.8%" y1="0%" x2="100%" y2="100%"><stop offset="14.444444444444446%" stop-color="#004255" stop-opacity="1"></stop><stop offset="85.55555555555554%" stop-color="#00785c" stop-opacity="1"></stop></linearGradient></defs><defs><linearGradient id="grad1_3" x1="43.8%" y1="0%" x2="100%" y2="100%"><stop offset="14.444444444444446%" stop-color="#004255" stop-opacity="1"></stop><stop offset="85.55555555555554%" stop-color="#02101a" stop-opacity="1"></stop></linearGradient></defs><defs><linearGradient id="grad2_0" x1="0%" y1="0%" x2="56.3%" y2="100%"><stop offset="14.444444444444446%" stop-color="#23aa14" stop-opacity="1"></stop><stop offset="85.55555555555554%" stop-color="#23aa14" stop-opacity="1"></stop></linearGradient></defs><defs><linearGradient id="grad2_1" x1="0%" y1="0%" x2="56.3%" y2="100%"><stop offset="14.444444444444446%" stop-color="#00785c" stop-opacity="1"></stop><stop offset="85.55555555555554%" stop-color="#23aa14" stop-opacity="1"></stop></linearGradient></defs><defs><linearGradient id="grad2_2" x1="0%" y1="0%" x2="56.3%" y2="100%"><stop offset="14.444444444444446%" stop-color="#00785c" stop-opacity="1"></stop><stop offset="85.55555555555554%" stop-color="#004255" stop-opacity="1"></stop></linearGradient></defs><defs><linearGradient id="grad2_3" x1="0%" y1="0%" x2="56.3%" y2="100%"><stop offset="14.444444444444446%" stop-color="#02101a" stop-opacity="1"></stop><stop offset="85.55555555555554%" stop-color="#004255" stop-opacity="1"></stop></linearGradient></defs><g transform="translate(960, 0)"><path d="M0 270C-22.2 272.7 -44.3 275.4 -60.1 263.2C-75.8 251 -85.2 223.9 -102.8 213.5C-120.5 203.2 -146.5 209.6 -156.5 196.2C-166.5 182.9 -160.4 149.8 -161.8 129.1C-163.3 108.3 -172.2 99.9 -187.4 90.2C-202.6 80.6 -224 69.8 -238.9 54.5C-253.7 39.3 -261.8 19.6 -270 0L0 0Z" fill="#00283b"></path><path d="M0 202.5C-16.6 204.5 -33.2 206.6 -45.1 197.4C-56.9 188.3 -63.9 167.9 -77.1 160.1C-90.4 152.4 -109.9 157.2 -117.4 147.2C-124.9 137.2 -120.3 112.4 -121.4 96.8C-122.5 81.2 -129.2 74.9 -140.6 67.7C-151.9 60.5 -168 52.3 -179.1 40.9C-190.3 29.5 -196.4 14.7 -202.5 0L0 0Z" fill="#005d61"></path><path d="M0 135C-11.1 136.4 -22.2 137.7 -30 131.6C-37.9 125.5 -42.6 111.9 -51.4 106.8C-60.3 101.6 -73.3 104.8 -78.2 98.1C-83.2 91.5 -80.2 74.9 -80.9 64.5C-81.6 54.2 -86.1 49.9 -93.7 45.1C-101.3 40.3 -112 34.9 -119.4 27.3C-126.8 19.6 -130.9 9.8 -135 0L0 0Z" fill="#009246"></path><path d="M0 67.5C-5.5 68.2 -11.1 68.9 -15 65.8C-19 62.8 -21.3 56 -25.7 53.4C-30.1 50.8 -36.6 52.4 -39.1 49.1C-41.6 45.7 -40.1 37.5 -40.5 32.3C-40.8 27.1 -43.1 25 -46.9 22.6C-50.6 20.2 -56 17.4 -59.7 13.6C-63.4 9.8 -65.5 4.9 -67.5 0L0 0Z" fill="#23aa14"></path></g><g transform="translate(0, 540)"><path d="M0 -270C18.9 -262.1 37.8 -254.2 57.2 -250.6C76.6 -246.9 96.4 -247.6 117.1 -243.3C137.9 -238.9 159.5 -229.6 166.5 -208.7C173.5 -187.9 166 -155.4 168.9 -134.7C171.8 -113.9 185.2 -104.9 191.9 -92.4C198.6 -79.9 198.7 -64 210.6 -48.1C222.5 -32.1 246.2 -16 270 0L0 0Z" fill="#00283b"></path><path d="M0 -202.5C14.2 -196.6 28.4 -190.6 42.9 -187.9C57.4 -185.2 72.3 -185.7 87.9 -182.4C103.4 -179.2 119.6 -172.2 124.9 -156.6C130.1 -140.9 124.5 -116.6 126.7 -101C128.8 -85.4 138.9 -78.7 143.9 -69.3C149 -60 149 -48 157.9 -36C166.9 -24.1 184.7 -12 202.5 0L0 0Z" fill="#005d61"></path><path d="M0 -135C9.5 -131 18.9 -127.1 28.6 -125.3C38.3 -123.5 48.2 -123.8 58.6 -121.6C68.9 -119.5 79.7 -114.8 83.2 -104.4C86.7 -93.9 83 -77.7 84.4 -67.3C85.9 -57 92.6 -52.4 96 -46.2C99.3 -40 99.3 -32 105.3 -24C111.2 -16 123.1 -8 135 0L0 0Z" fill="#009246"></path><path d="M0 -67.5C4.7 -65.5 9.5 -63.5 14.3 -62.6C19.1 -61.7 24.1 -61.9 29.3 -60.8C34.5 -59.7 39.9 -57.4 41.6 -52.2C43.4 -47 41.5 -38.9 42.2 -33.7C42.9 -28.5 46.3 -26.2 48 -23.1C49.7 -20 49.7 -16 52.6 -12C55.6 -8 61.6 -4 67.5 0L0 0Z" fill="#23aa14"></path></g></svg>